<svg width="88" height="52" viewBox="0 0 88 52" fill="none" xmlns="http://www.w3.org/2000/svg">
<path d="M76.7621 2.91571L78.6357 7.97897C78.7876 8.38954 79.1113 8.71326 79.5219 8.86519L84.5852 10.7388C85.0205 10.8998 85.0205 11.5155 84.5852 11.6766L79.5219 13.5502C79.1113 13.7021 78.7876 14.0258 78.6357 14.4364L76.7621 19.4997C76.601 19.935 75.9853 19.935 75.8243 19.4997L73.9507 14.4364C73.7988 14.0258 73.475 13.7021 73.0645 13.5502L68.0012 11.6766C67.5659 11.5155 67.5659 10.8998 68.0012 10.7388L73.0645 8.86519C73.475 8.71326 73.7988 8.38954 73.9507 7.97897L75.8243 2.91571C75.9853 2.4804 76.601 2.4804 76.7621 2.91571Z" fill="white" stroke="white"/>
<circle cx="42" cy="29" r="19.5" stroke="white" stroke-width="7"/>
<path d="M80.0431 25.2412C80.4409 25.2286 80.8247 25.45 80.9191 25.8367C81.3391 27.5566 80.1201 29.2803 77.3534 30.8543C74.256 32.6164 69.3395 34.1221 63.1473 35.2049C56.9551 36.2877 49.7286 36.9055 42.2666 36.99C34.8046 37.0745 27.3978 36.6223 20.8652 35.6835C14.3326 34.7447 8.92855 33.3558 5.25059 31.6704C1.57263 29.9851 -0.235998 28.0688 0.0246719 26.1336C0.285342 24.1983 2.60515 22.3194 6.72763 20.7047C10.7844 19.1156 16.4313 17.8433 23.0611 17.0233C23.2705 16.9974 23.4833 17.039 23.6677 17.1415L24.4912 17.5994C25.3381 18.0702 25.089 19.3688 24.1318 19.5197C20.1802 20.1425 16.7931 20.9853 14.2251 21.9912C11.0178 23.2475 9.213 24.7093 9.01019 26.2149C8.80739 27.7205 10.2145 29.2114 13.076 30.5226C15.9374 31.8338 20.1417 32.9144 25.2241 33.6448C30.3065 34.3752 36.069 34.7269 41.8744 34.6612C47.6798 34.5955 53.3021 34.1149 58.1196 33.2724C62.9371 32.43 66.7622 31.2585 69.172 29.8876C70.7842 28.9704 71.7209 27.9878 71.9523 26.9901C72.1149 26.2884 72.5792 25.4788 73.2992 25.4559L80.0431 25.2412Z" fill="white"/>
<path d="M24 20.5C24 19.6716 24.6716 19 25.5 19H36.5C37.3284 19 38 19.6716 38 20.5V20.5C38 21.3284 37.3284 22 36.5 22H25.5C24.6716 22 24 21.3284 24 20.5V20.5Z" fill="white"/>
<rect x="23" y="26" width="24" height="3" rx="1.5" fill="white"/>
<circle cx="41.5" cy="20.5" r="1.5" fill="white"/>
<circle cx="50.5" cy="27.5" r="1.5" fill="white"/>
</svg>
